<svg xmlns="http://www.w3.org/2000/svg" width="1200" height="675" viewBox="0 0 1200 675"><rect width="100%" height="100%" fill="#1f2937"/><path fill="#ffffff" d="m328.365 285.035-6.1 11.56q-1.09 1.91-2.32 2.77-1.23.87-3.05.87-1.91 0-4.14-1.41t-5.32-3.14q-3.1-1.73-7.24-3.14t-9.78-1.41q-5.1 0-8.92 1.23-3.82 1.22-6.41 3.41-2.6 2.18-3.87 5.23t-1.27 6.69q0 4.64 2.59 7.73 2.59 3.1 6.87 5.28 4.28 2.19 9.74 3.91 5.46 1.73 11.19 3.69t11.19 4.55 9.74 6.55 6.87 9.69q2.59 5.74 2.59 13.93 0 8.92-3.04 16.7-3.05 7.78-8.92 13.55-5.87 5.78-14.34 9.1-8.46 3.33-19.38 3.33-6.28 0-12.37-1.23-6.1-1.23-11.7-3.51-5.59-2.27-10.51-5.46-4.91-3.18-8.73-7.09l7.18-11.74q.91-1.28 2.37-2.14 1.46-.87 3.09-.87 2.28 0 4.92 1.87t6.28 4.14q3.64 2.28 8.51 4.14 4.86 1.87 11.69 1.87 10.46 0 16.2-4.96 5.73-4.96 5.73-14.25 0-5.18-2.59-8.46-2.6-3.27-6.87-5.5-4.28-2.23-9.74-3.78t-11.1-3.37-11.1-4.36q-5.46-2.55-9.74-6.65-4.28-4.09-6.87-10.24-2.6-6.14-2.6-15.15 0-7.19 2.87-14.01 2.87-6.83 8.33-12.1 5.46-5.28 13.47-8.47 8-3.18 18.38-3.18 11.65 0 21.47 3.64 9.83 3.64 16.75 10.19m20.84 25.84h22.56v93.37h-22.56zm25.66-27.21q0 2.92-1.18 5.47-1.19 2.54-3.14 4.45-1.96 1.92-4.6 3.05-2.64 1.14-5.64 1.14-2.91 0-5.51-1.14-2.59-1.13-4.5-3.05-1.91-1.91-3.05-4.45-1.14-2.55-1.14-5.47 0-3 1.14-5.64t3.05-4.55 4.5-3.05q2.6-1.13 5.51-1.13 3 0 5.64 1.13 2.64 1.14 4.6 3.05 1.95 1.91 3.14 4.55 1.18 2.64 1.18 5.64m50.96 122.04q-12.2 0-18.7-6.87-6.51-6.88-6.51-18.98v-52.14h-9.55q-1.82 0-3.1-1.18-1.27-1.19-1.27-3.55v-8.92l15.01-2.46 4.74-25.48q.45-1.82 1.72-2.82 1.28-1 3.28-1h11.65v29.39h24.93v16.02h-24.93v50.6q0 4.36 2.14 6.82t5.87 2.46q2.09 0 3.5-.5t2.46-1.05q1.04-.55 1.86-1.05t1.64-.5q1 0 1.64.5t1.36 1.5l6.74 10.92q-4.92 4.1-11.29 6.19-6.37 2.1-13.19 2.1m54.33-58.88h42.4q0-4.37-1.23-8.24-1.23-3.86-3.68-6.78-2.46-2.91-6.24-4.59-3.77-1.69-8.78-1.69-9.73 0-15.33 5.56-5.6 5.55-7.14 15.74m57.33 13.56h-57.79q.55 7.19 2.55 12.42t5.28 8.64q3.27 3.42 7.78 5.1 4.5 1.68 9.96 1.68t9.42-1.27 6.92-2.82q2.95-1.55 5.18-2.82 2.23-1.28 4.33-1.28 2.82 0 4.18 2.1l6.46 8.19q-3.73 4.37-8.37 7.32-4.64 2.96-9.69 4.73-5.05 1.78-10.28 2.51-5.24.72-10.15.72-9.74 0-18.11-3.23t-14.56-9.55q-6.19-6.33-9.74-15.65-3.55-9.33-3.55-21.61 0-9.56 3.1-17.98 3.09-8.42 8.87-14.65t14.11-9.87q8.32-3.64 18.79-3.64 8.82 0 16.29 2.82 7.46 2.82 12.83 8.23 5.37 5.42 8.42 13.29 3.04 7.87 3.04 17.97 0 5.1-1.09 6.87-1.09 1.78-4.18 1.78m162.89-87.73h19.74l-53.14 131.59h-22.11l-53.15-131.59h19.66q3.18 0 5.18 1.55 2.01 1.55 3.01 4.01l31.03 80.26q1.55 3.91 2.96 8.6 1.41 4.68 2.68 9.78 1.09-5.1 2.37-9.78 1.27-4.69 2.82-8.6l30.85-80.26q.72-2.1 2.86-3.83t5.24-1.73m30.57 38.22h22.57v93.37h-22.57zm25.66-27.21q0 2.92-1.18 5.47-1.18 2.54-3.14 4.45-1.96 1.92-4.59 3.05-2.64 1.14-5.65 1.14-2.91 0-5.5-1.14-2.6-1.13-4.51-3.05-1.91-1.91-3.04-4.45-1.14-2.55-1.14-5.47 0-3 1.14-5.64 1.13-2.64 3.04-4.55t4.51-3.05q2.59-1.13 5.5-1.13 3.01 0 5.65 1.13 2.63 1.14 4.59 3.05t3.14 4.55 1.18 5.64m81.9 37.31-5.09 8.1q-.91 1.46-1.91 2.05t-2.55.59q-1.64 0-3.5-.91-1.87-.91-4.33-2.04-2.45-1.14-5.59-2.05t-7.42-.91q-6.64 0-10.42 2.82t-3.78 7.37q0 3 1.96 5.05t5.19 3.6q3.23 1.54 7.32 2.77 4.1 1.23 8.33 2.69 4.23 1.45 8.33 3.32 4.09 1.86 7.32 4.73 3.23 2.86 5.19 6.87 1.95 4 1.95 9.65 0 6.73-2.41 12.42-2.41 5.68-7.14 9.82t-11.69 6.47q-6.97 2.32-16.07 2.32-4.82 0-9.41-.87-4.6-.86-8.83-2.41t-7.83-3.64q-3.59-2.09-6.32-4.55l5.19-8.55q1-1.55 2.36-2.37 1.37-.82 3.46-.82t3.96 1.18q1.86 1.19 4.32 2.55 2.46 1.37 5.78 2.55t8.42 1.18q4 0 6.87-.95 2.86-.96 4.73-2.51 1.86-1.54 2.73-3.59.86-2.05.86-4.23 0-3.28-1.95-5.37-1.96-2.09-5.19-3.64t-7.37-2.78q-4.14-1.22-8.46-2.68-4.33-1.46-8.47-3.41-4.14-1.96-7.37-4.96t-5.18-7.37q-1.96-4.37-1.96-10.56 0-5.73 2.27-10.92 2.28-5.19 6.69-9.05 4.42-3.87 11.01-6.19 6.6-2.32 15.25-2.32 9.64 0 17.56 3.18 7.92 3.19 13.19 8.37m18.66-10.1h22.57v93.37h-22.57zm25.66-27.21q0 2.92-1.18 5.47-1.19 2.54-3.14 4.45-1.96 1.92-4.6 3.05-2.64 1.14-5.64 1.14-2.91 0-5.5-1.14-2.6-1.13-4.51-3.05-1.91-1.91-3.05-4.45-1.14-2.55-1.14-5.47 0-3 1.14-5.64t3.05-4.55 4.51-3.05q2.59-1.13 5.5-1.13 3 0 5.64 1.13 2.64 1.14 4.6 3.05 1.95 1.91 3.14 4.55 1.18 2.64 1.18 5.64m50.96 122.04q-12.19 0-18.7-6.87-6.51-6.88-6.51-18.98v-52.14h-9.55q-1.82 0-3.1-1.18-1.27-1.19-1.27-3.55v-8.92l15.02-2.46 4.73-25.48q.45-1.82 1.73-2.82 1.27-1 3.27-1h11.65v29.39h24.93v16.02h-24.93v50.6q0 4.36 2.14 6.82t5.87 2.46q2.09 0 3.5-.5t2.46-1.05 1.86-1.05q.82-.5 1.64-.5 1 0 1.64.5t1.37 1.5l6.73 10.92q-4.91 4.1-11.28 6.19-6.37 2.1-13.2 2.1"/></svg>