<svg id="Group_66" data-name="Group 66" xmlns="http://www.w3.org/2000/svg" width="50.266" height="50.267" viewBox="0 0 50.266 50.267">
  <path id="Path_2" data-name="Path 2" d="M47.124,42.712,36.1,46.125c.009-.091.027-.178.027-.271a3.145,3.145,0,0,0-3.142-3.142h-6.93l-8.639-3.142H11A1.572,1.572,0,0,0,9.425,38H0v1.571H9.425V53.708H0v1.571H9.425A1.572,1.572,0,0,0,11,53.708H14l13.352,4.712h1.9l19.806-10.3.194-.142a3.46,3.46,0,0,0,1.015-2.125A3.145,3.145,0,0,0,47.124,42.712Zm1.089,4.078L28.868,56.85H27.624L14.272,52.137H11v-11h6.145l8.639,3.142h7.207a1.571,1.571,0,1,1,0,3.142H24.348a3.145,3.145,0,0,0-3.142,3.142h1.571A1.572,1.572,0,0,1,24.348,49h8.639a3.126,3.126,0,0,0,2.253-.962l11.992-3.747A1.573,1.573,0,0,1,48.7,45.854,1.843,1.843,0,0,1,48.213,46.79Z" transform="translate(0 -8.154)" fill="#fff"/>
  <rect id="Rectangle_5" data-name="Rectangle 5" width="2" height="2" transform="translate(6 42)" fill="#fff"/>
  <rect id="Rectangle_6" data-name="Rectangle 6" width="2" height="2" transform="translate(3 42)" fill="#fff"/>
  <path id="Path_3" data-name="Path 3" d="M36.142,24.142a1.572,1.572,0,0,1,1.571,1.571h1.571a3.136,3.136,0,0,0-2.356-3.029V21H35.356v1.683A3.136,3.136,0,0,0,33,25.712c0,1.722,2.349,2.863,2.82,3.073.774.347,1.892,1.13,1.892,1.64a1.571,1.571,0,1,1-3.142,0H33a3.136,3.136,0,0,0,2.356,3.029v1.683h1.571V33.454a3.136,3.136,0,0,0,2.356-3.029c0-1.722-2.349-2.863-2.82-3.073-.774-.347-1.892-1.13-1.892-1.64A1.572,1.572,0,0,1,36.142,24.142Z" transform="translate(-7.082 -4.506)" fill="#fff"/>
  <rect id="Rectangle_7" data-name="Rectangle 7" width="1" height="1" transform="translate(34 23)" fill="#fff"/>
  <rect id="Rectangle_8" data-name="Rectangle 8" width="1" height="1" transform="translate(23 23)" fill="#fff"/>
  <path id="Path_4" data-name="Path 4" d="M19.571,28.274c0-15.528,10.108-15.708,10.21-15.708h6.283c2.157,0,10.21,2.666,10.21,15.708v6.283h1.571V28.274c0-11.628-6.1-15.758-9.742-16.9a2.317,2.317,0,0,0-.917-3.219l2.722-5.444a.786.786,0,0,0-.351-1.054L36.416.082a.785.785,0,0,0-.7,0l-2.791,1.4L30.132.083a.785.785,0,0,0-.7,0L26.288,1.654a.786.786,0,0,0-.351,1.054l2.722,5.444a2.314,2.314,0,0,0-.933,3.187C24.35,12.26,18,15.666,18,28.274v1.571h1.571ZM29.781,1.663l2.791,1.395a.785.785,0,0,0,.7,0l2.79-1.395,2.088,1.044L35.579,7.854H30.266L27.693,2.707ZM29,10.21a.786.786,0,0,1,.785-.785h6.283a.785.785,0,0,1,0,1.571H29.781A.786.786,0,0,1,29,10.21Z" transform="translate(-3.863 0.001)" fill="#fff"/>
</svg>
