<svg id="Group_67" data-name="Group 67" xmlns="http://www.w3.org/2000/svg" width="48.044" height="50.433" viewBox="0 0 48.044 50.433">
  <path id="Path_9" data-name="Path 9" d="M46.68,75.292a4.294,4.294,0,0,0,1.433-3.238,4.353,4.353,0,1,0-8.706,0,4.49,4.49,0,0,0,1.433,3.238A4.964,4.964,0,0,0,36.7,80.176v2.5a.839.839,0,0,0,.849.849H50.025a.839.839,0,0,0,.849-.849v-2.5A5.106,5.106,0,0,0,46.68,75.292ZM43.761,69.4a2.719,2.719,0,0,1,2.707,2.707,2.674,2.674,0,0,1-2.707,2.654,2.719,2.719,0,0,1-2.707-2.707A2.674,2.674,0,0,1,43.761,69.4Zm5.415,12.476H38.346V80.229a3.308,3.308,0,0,1,3.291-3.291h4.194a3.308,3.308,0,0,1,3.291,3.291v1.646Z" transform="translate(-19.765 -33.087)" fill="#f4921b"/>
  <path id="Path_10" data-name="Path 10" d="M78.58,75.292a4.294,4.294,0,0,0,1.433-3.238,4.353,4.353,0,1,0-8.706,0,4.49,4.49,0,0,0,1.433,3.238A4.964,4.964,0,0,0,68.6,80.176v2.5a.839.839,0,0,0,.849.849H81.925a.839.839,0,0,0,.849-.849v-2.5A5.055,5.055,0,0,0,78.58,75.292ZM75.661,69.4a2.719,2.719,0,0,1,2.707,2.707,2.674,2.674,0,0,1-2.707,2.654,2.719,2.719,0,0,1-2.707-2.707A2.674,2.674,0,0,1,75.661,69.4Zm5.415,12.476H70.246V80.229a3.308,3.308,0,0,1,3.291-3.291h4.194a3.308,3.308,0,0,1,3.291,3.291v1.646Z" transform="translate(-34.73 -33.087)" fill="#f4921b"/>
  <path id="Path_11" data-name="Path 11" d="M14.78,75.292a4.294,4.294,0,0,0,1.433-3.238,4.353,4.353,0,1,0-8.706,0,4.49,4.49,0,0,0,1.433,3.238A4.964,4.964,0,0,0,4.8,80.176v2.5a.839.839,0,0,0,.849.849H18.125a.839.839,0,0,0,.849-.849v-2.5A5.061,5.061,0,0,0,14.78,75.292ZM11.861,69.4a2.719,2.719,0,0,1,2.707,2.707,2.674,2.674,0,0,1-2.707,2.654,2.719,2.719,0,0,1-2.707-2.707A2.674,2.674,0,0,1,11.861,69.4Zm5.415,12.476H6.446V80.229a3.308,3.308,0,0,1,3.291-3.291h4.194a3.308,3.308,0,0,1,3.291,3.291v1.646Z" transform="translate(-4.8 -33.087)" fill="#f4921b"/>
  <path id="Path_12" data-name="Path 12" d="M25.127,37.325l9.609-8.919h2.177V35.52a4.291,4.291,0,0,1,.849-.053,4.567,4.567,0,0,1,.849.053V28.407h2.177l9.556,8.919a5.855,5.855,0,0,1,1.327-1.009l-8.494-7.91h7.061a.839.839,0,0,0,.849-.849V3.349a.839.839,0,0,0-.849-.849H25.18a.839.839,0,0,0-.849.849V27.557a.839.839,0,0,0,.849.849h7.061L23.8,36.264A6.48,6.48,0,0,1,25.127,37.325Zm.9-33.18H49.388V26.708H26.03Z" transform="translate(-13.713 -2.5)" fill="#f4921b"/>
  <path id="Path_13" data-name="Path 13" d="M35.394,16.311a.682.682,0,0,0,.212.531.807.807,0,0,0,1.062,0l1.115-1.115L38.9,16.842a.807.807,0,0,0,1.062,0,.77.77,0,0,0,0-1.062l-1.115-1.115,1.115-1.115a.709.709,0,0,0,0-1.062.752.752,0,0,0-1.062,0L37.783,13.6l-1.115-1.115a.709.709,0,0,0-1.062,0,.752.752,0,0,0,0,1.062l1.115,1.115L35.606,15.78A.682.682,0,0,0,35.394,16.311Z" transform="translate(-19.149 -7.074)" fill="#f4921b"/>
  <path id="Path_14" data-name="Path 14" d="M58.642,32.789a.709.709,0,0,0-1.062,0l-1.115,1.062-1.115-1.062a.751.751,0,0,0-1.062,1.062L55.4,34.965,54.289,36.08a.709.709,0,0,0,0,1.062.807.807,0,0,0,1.062,0l1.115-1.115,1.115,1.115a.807.807,0,0,0,1.062,0,.709.709,0,0,0,0-1.062l-1.115-1.115,1.115-1.115A.807.807,0,0,0,58.642,32.789Z" transform="translate(-27.904 -16.597)" fill="#f4921b"/>
  <path id="Path_15" data-name="Path 15" d="M48.4,11.689a.709.709,0,0,0-1.062,0l-2.389,2.336a.751.751,0,1,0,1.062,1.062l1.062-1.062v2.548a2.243,2.243,0,0,1-2.23,2.23H40.433a3.708,3.708,0,0,0-3.716,3.4v.159l-.106.053a2.792,2.792,0,0,0-1.911,2.6,2.761,2.761,0,1,0,3.716-2.548l-.159-.053.053-.159A2.263,2.263,0,0,1,40.487,20.4h4.406a3.784,3.784,0,0,0,3.769-3.769V14.078l1.062,1.062a.807.807,0,0,0,1.062,0,.77.77,0,0,0,0-1.062ZM38.682,25.067a1.221,1.221,0,1,1-1.221-1.221A1.2,1.2,0,0,1,38.682,25.067Z" transform="translate(-18.827 -6.699)" fill="#f4921b"/>
</svg>
