<svg xmlns="http://www.w3.org/2000/svg" width="36.867" height="27.511" viewBox="0 0 36.867 27.511">
  <path id="bxs-quote-alt-left" d="M31.4,22.587a8.135,8.135,0,0,0,1.195-.12,6.626,6.626,0,0,1-.467,1.25,7.731,7.731,0,0,1-.863,1.551,9.148,9.148,0,0,1-1.1,1.354,12.289,12.289,0,0,1-1.272,1.11,7.839,7.839,0,0,1-1.312.852,6.933,6.933,0,0,1-1.195.643l-.99.408L24.521,30l.892,3.562,1.1-.265c.35-.088.779-.191,1.266-.315A9.892,9.892,0,0,0,29.4,32.4a11.414,11.414,0,0,0,1.889-.856,17.253,17.253,0,0,0,2-1.272,14.331,14.331,0,0,0,1.93-1.736A12.919,12.919,0,0,0,36.89,26.4a14.9,14.9,0,0,0,1.29-2.387,20.216,20.216,0,0,0,.86-2.455,22.186,22.186,0,0,0,.706-4.478,22.906,22.906,0,0,0-.051-3.211c-.027-.375-.08-.739-.116-.99l-.047-.309-.048.011a8.27,8.27,0,1,0-8.085,10Zm-20.216,0a8.135,8.135,0,0,0,1.195-.12,6.626,6.626,0,0,1-.467,1.25,7.731,7.731,0,0,1-.863,1.551,9.148,9.148,0,0,1-1.1,1.354,12.29,12.29,0,0,1-1.272,1.11,7.839,7.839,0,0,1-1.312.852,6.933,6.933,0,0,1-1.195.643l-.99.408L4.3,30,5.2,33.557l1.1-.265c.35-.088.779-.191,1.266-.315A9.892,9.892,0,0,0,9.18,32.4a11.38,11.38,0,0,0,1.889-.859,17.253,17.253,0,0,0,2-1.272A14.4,14.4,0,0,0,15,28.539,12.919,12.919,0,0,0,16.674,26.4a14.9,14.9,0,0,0,1.29-2.387,20.216,20.216,0,0,0,.86-2.455,22.186,22.186,0,0,0,.706-4.478,22.906,22.906,0,0,0-.051-3.211c-.027-.375-.08-.739-.116-.99l-.047-.309-.048.011a8.27,8.27,0,1,0-8.085,10Z" transform="translate(-2.911 -6.046)" fill="#f48e1b"/>
</svg>
