<svg xmlns="http://www.w3.org/2000/svg" width="36.867" height="27.511" viewBox="0 0 36.867 27.511">
  <path id="bxs-quote-alt-left" d="M11.29,17.016a8.135,8.135,0,0,0-1.195.12,6.626,6.626,0,0,1,.467-1.25,7.731,7.731,0,0,1,.863-1.551,9.148,9.148,0,0,1,1.1-1.354,12.289,12.289,0,0,1,1.272-1.11,7.839,7.839,0,0,1,1.312-.852,6.933,6.933,0,0,1,1.195-.643l.99-.408.871-.361-.892-3.562-1.1.265c-.35.088-.779.191-1.266.315a9.892,9.892,0,0,0-1.621.573,11.413,11.413,0,0,0-1.889.856,17.253,17.253,0,0,0-2,1.272,14.331,14.331,0,0,0-1.93,1.736A12.919,12.919,0,0,0,5.8,13.2a14.9,14.9,0,0,0-1.29,2.387,20.216,20.216,0,0,0-.86,2.455,22.186,22.186,0,0,0-.706,4.478,22.906,22.906,0,0,0,.051,3.211c.027.375.08.739.116.99l.047.309.048-.011a8.27,8.27,0,1,0,8.085-10Zm20.216,0a8.135,8.135,0,0,0-1.195.12,6.626,6.626,0,0,1,.467-1.25,7.731,7.731,0,0,1,.863-1.551,9.148,9.148,0,0,1,1.1-1.354,12.289,12.289,0,0,1,1.272-1.11,7.839,7.839,0,0,1,1.312-.852,6.933,6.933,0,0,1,1.195-.643l.99-.408.871-.361-.892-3.562-1.1.265c-.35.088-.779.191-1.266.315a9.892,9.892,0,0,0-1.621.573,11.379,11.379,0,0,0-1.889.859,17.253,17.253,0,0,0-2,1.272,14.4,14.4,0,0,0-1.93,1.735A12.919,12.919,0,0,0,26.015,13.2a14.9,14.9,0,0,0-1.29,2.387,20.216,20.216,0,0,0-.86,2.455,22.186,22.186,0,0,0-.706,4.478,22.906,22.906,0,0,0,.051,3.211c.027.375.08.739.116.99l.047.309.048-.011a8.27,8.27,0,1,0,8.085-10Z" transform="translate(-2.911 -6.046)" fill="#f48f1b"/>
</svg>
