<svg xmlns="http://www.w3.org/2000/svg" width="57.043" height="57.042" viewBox="0 0 57.043 57.042">
  <g id="Group_88" data-name="Group 88" transform="translate(-233.193 -80.881)">
    <path id="Path_178" data-name="Path 178" d="M236.346,106.552c-.418,0-.8,0-1.186,0a1.9,1.9,0,0,1-1.958-1.929c-.011-.627-.009-1.254,0-1.881a1.859,1.859,0,0,1,1.7-1.867c.59-.053,1.187-.02,1.78-.032a1.341,1.341,0,0,0,.638-.06c.148-.095.194-.356.276-.547q.991-2.3,1.978-4.606a1.892,1.892,0,0,1,1.479-1.177,1.918,1.918,0,0,1,.974.1q1.83.607,3.659,1.217c.123.041.247.079.388.124.071-.122.132-.224.191-.327q1.4-2.449,2.8-4.9a1.869,1.869,0,0,1,1.925-1,2.816,2.816,0,0,1,.606.149c1.2.4,2.4.8,3.594,1.2.112.038.225.073.348.113.066-.13.123-.236.175-.343.646-1.336,1.287-2.675,1.938-4.009a1.888,1.888,0,0,1,1.952-1.124c.435.057.861.173,1.291.268.708.156,1.417.309,2.122.481a.39.39,0,0,0,.447-.16,15.189,15.189,0,0,1,22.931-.254,14.671,14.671,0,0,1,3.714,8.123,15.222,15.222,0,0,1-11.984,16.861.46.46,0,0,0-.382.339q-2.561,6.928-5.133,13.852c-.026.072-.049.145-.085.25a6.649,6.649,0,0,1,3.321,4.529,6.436,6.436,0,0,1-.407,3.971,6.664,6.664,0,0,1-12.7-1.668h-9.634a6.7,6.7,0,0,1-2.549,4.3,6.457,6.457,0,0,1-3.783,1.369,6.67,6.67,0,0,1-3.437-12.52Zm2.026,0,6.737,18.192c.139-.017.248-.027.355-.043a6.554,6.554,0,0,1,5.475,1.616.7.7,0,0,0,.494.2q6.486-.009,12.972,0a.652.652,0,0,0,.47-.176,6.553,6.553,0,0,1,5.5-1.642c.116.017.234.026.362.04l4.982-13.449a1.274,1.274,0,0,0-.174-.016,12.223,12.223,0,0,1-3.216-.22,14.941,14.941,0,0,1-8.062-4.263.772.772,0,0,0-.605-.244q-12.428.007-24.855,0Zm23.347-10.473a13.313,13.313,0,1,0,13.271-13.3A13.326,13.326,0,0,0,261.718,96.079Zm-1.145,4.746a15.172,15.172,0,0,1,1.508-12.689l-2.688-.6c-.07.138-.13.254-.187.371q-.955,1.974-1.908,3.948a2,2,0,0,1-.523.711,1.878,1.878,0,0,1-1.886.349l-3.876-1.29c-.081-.027-.165-.043-.263-.069-.073.126-.14.239-.2.352-.921,1.614-1.85,3.222-2.758,4.843a1.979,1.979,0,0,1-2.4.922c-.849-.3-1.707-.575-2.561-.859-.488-.162-.977-.321-1.491-.489-.327.763-.648,1.508-.965,2.254s-.651,1.471-.948,2.245Zm13.5,30.486a4.752,4.752,0,1,0-4.809,4.709A4.75,4.75,0,0,0,274.078,131.311ZM246.5,136.018a4.752,4.752,0,1,0-4.746-4.874A4.766,4.766,0,0,0,246.5,136.018Zm14.854-33.254H235.147a8.259,8.259,0,0,0,.008,1.864h27.263ZM253.136,130.3H262.7l.564-1.874H252.573Z" transform="translate(0)" fill="#f4921b"/>
    <path id="Path_179" data-name="Path 179" d="M729.794,476.408a.947.947,0,0,1,.541-.871q1.028-.56,2.055-1.123c.367-.2.73-.406,1.1-.6a.828.828,0,0,0,.362-.363q.847-1.567,1.709-3.125a.987.987,0,0,1,1.3-.449,1.072,1.072,0,0,1,.5.508c.54,1,1.091,1.984,1.625,2.983a1.154,1.154,0,0,0,.5.5c1.017.546,2.026,1.107,3.041,1.656a.966.966,0,0,1,.562.8.922.922,0,0,1-.528.946l-1.91,1.044c-.415.227-.826.46-1.246.677a.877.877,0,0,0-.382.389c-.533.987-1.074,1.969-1.613,2.952a2.913,2.913,0,0,1-.2.34.937.937,0,0,1-1.526,0,2.72,2.72,0,0,1-.186-.311c-.544-.993-1.091-1.985-1.628-2.982a.9.9,0,0,0-.384-.387c-1.045-.564-2.084-1.138-3.128-1.7A.957.957,0,0,1,729.794,476.408Zm6.648,3.719c.349-.639.683-1.208.974-1.8a2.016,2.016,0,0,1,.956-.952c.589-.292,1.158-.625,1.78-.965-.128-.075-.218-.13-.312-.181-.559-.306-1.115-.617-1.678-.913a1.464,1.464,0,0,1-.636-.642c-.306-.584-.628-1.159-.946-1.736-.038-.07-.089-.133-.149-.222-.072.126-.128.22-.18.315-.306.559-.616,1.115-.914,1.678a1.384,1.384,0,0,1-.6.594c-.592.314-1.178.639-1.765.961-.071.039-.134.092-.222.153.126.072.221.127.316.179.52.285,1.035.581,1.563.849a1.683,1.683,0,0,1,.772.777c.227.451.48.889.723,1.332Z" transform="translate(-452.851 -354.642)" fill="#f4921b"/>
    <path id="Path_182" data-name="Path 182" d="M530.336,426.678a.977.977,0,0,1,.9.535c.449.831.907,1.658,1.353,2.491a.942.942,0,0,0,.41.4c.814.435,1.623.879,2.431,1.325a1.477,1.477,0,0,1,.349.242.94.94,0,0,1-.241,1.51c-.795.447-1.594.887-2.4,1.308a1.405,1.405,0,0,0-.632.633c-.39.751-.8,1.489-1.21,2.232-.011.019-.023.037-.033.057a.976.976,0,0,1-.926.627,1.006,1.006,0,0,1-.894-.628c-.44-.824-.9-1.639-1.338-2.462a.846.846,0,0,0-.362-.363c-.861-.464-1.721-.929-2.576-1.4a.943.943,0,0,1-.239-1.509,1.375,1.375,0,0,1,.322-.224c.818-.451,1.636-.9,2.459-1.342a.944.944,0,0,0,.41-.4c.445-.834.9-1.662,1.356-2.49A.939.939,0,0,1,530.336,426.678Zm.02,8.431c.254-.462.491-.858.693-1.271a1.7,1.7,0,0,1,.823-.814c.411-.2.8-.435,1.236-.673-.117-.071-.2-.124-.282-.171-.355-.2-.708-.4-1.069-.585a1.451,1.451,0,0,1-.658-.665c-.188-.372-.4-.734-.6-1.1-.039-.07-.09-.135-.155-.23l-.464.836c-.589,1.062-.359.835-1.418,1.424l-.869.485c.454.249.858.488,1.277.7a1.641,1.641,0,0,1,.778.77C529.859,434.233,530.1,434.639,530.357,435.109Z" transform="translate(-265.781 -315.332)" fill="#f4921b"/>
    <path id="Path_183" data-name="Path 183" d="M632.324,129.965c0,1,0,2,0,3a.452.452,0,0,0,.22.431,3.734,3.734,0,0,1,1.687,3.188,8.79,8.79,0,0,0,.195,2.193,6.372,6.372,0,0,0,2.215,3.467.954.954,0,0,1,.372,1.161.987.987,0,0,1-.4.466,12.989,12.989,0,0,1-14.154.075,1.022,1.022,0,0,1-.576-.86.96.96,0,0,1,.408-.821,6.613,6.613,0,0,0,2.443-5.122,5.619,5.619,0,0,1,.1-1.509,3.733,3.733,0,0,1,1.554-2.218.506.506,0,0,0,.252-.482c-.008-1.958.02-3.917-.013-5.874a2.863,2.863,0,0,1,2.784-2.887,2.833,2.833,0,0,1,2.917,2.819c.015.99,0,1.98,0,2.97Zm2.2,12.919a8.682,8.682,0,0,1-2.106-4.418c-.469-.068-5.657-.046-5.892.023a8.7,8.7,0,0,1-2.1,4.393,10.9,10.9,0,0,0,4.083,1.166c.006-.142.016-.259.016-.377,0-.737,0-1.474,0-2.211a2.089,2.089,0,0,1,.022-.361.944.944,0,0,1,1.827-.106,1.578,1.578,0,0,1,.044.424c0,.77,0,1.54,0,2.31,0,.1.011.207.017.326A11,11,0,0,0,634.522,142.884Zm-4.116-10.178c.005-.111.013-.2.013-.283q0-2.653,0-5.306c0-.066,0-.132-.007-.2a.947.947,0,0,0-1.826-.242,1.534,1.534,0,0,0-.066.485q-.007,2.6,0,5.208v.335Zm1.9,3.8a1.306,1.306,0,0,0,.009-.18,1.9,1.9,0,0,0-1.807-1.7q-1.039-.029-2.079,0a1.9,1.9,0,0,0-1.762,1.482,2.985,2.985,0,0,0-.032.4Z" transform="translate(-354.44 -39.48)" fill="#f4921b"/>
    <path id="Path_184" data-name="Path 184" d="M610.965,623.189a2.87,2.87,0,0,1,2.776-2.736,2.836,2.836,0,0,1,2.9,2.521,1.9,1.9,0,0,1,0,.522.941.941,0,0,1-.944.762.956.956,0,0,1-.914-.841c-.009-.076-.006-.154-.018-.23a.953.953,0,0,0-1.9.077.954.954,0,1,1-1.9-.075Z" transform="translate(-344.49 -492.035)" fill="#f4921b"/>
    <path id="Path_185" data-name="Path 185" d="M354.91,620.264a2.886,2.886,0,0,1,2.83,2.833.945.945,0,0,1-1.874.215c-.02-.1-.022-.2-.035-.294a.948.948,0,0,0-1.873-.054c-.018.1-.019.2-.033.295a.941.941,0,0,1-1.872-.043,2.815,2.815,0,0,1,1.8-2.734,3.569,3.569,0,0,1,.539-.147C354.56,620.3,354.736,620.286,354.91,620.264Z" transform="translate(-108.38 -491.863)" fill="#f4921b"/>
  </g>
</svg>
