<svg xmlns="http://www.w3.org/2000/svg" width="62.679" height="62.718" viewBox="0 0 62.679 62.718">
  <g id="Group_82" data-name="Group 82" transform="translate(25.46 -96.331)">
    <path id="Path_125" data-name="Path 125" d="M197,128.676H173.16c-.008-.1-.024-.2-.024-.3,0-1.643-.043-3.288.01-4.929a4.781,4.781,0,0,1,3.072-4.539c1.3-.556,2.643-1.009,3.967-1.509.3-.113.6-.229.913-.351,0-.24.013-.466-.006-.688a.472.472,0,0,0-.133-.274,5.914,5.914,0,0,1-1.458-2.219c-.062-.168-.18-.2-.321-.234a3.853,3.853,0,0,1-2.233-1.441,3.742,3.742,0,0,1-.817-2.314c-.009-1.476-.048-2.954.005-4.429a8.98,8.98,0,0,1,7.679-8.525,8.941,8.941,0,0,1,10.036,7.111,11.661,11.661,0,0,1,.188,1.914c.029,1.238.018,2.477.006,3.715a3.927,3.927,0,0,1-2.139,3.617,4.425,4.425,0,0,1-.931.347.454.454,0,0,0-.342.31,5.579,5.579,0,0,1-1.339,2.044.637.637,0,0,0-.233.56c.016.153,0,.308,0,.494.116.05.231.106.349.15,1.447.544,2.9,1.077,4.34,1.633a4.874,4.874,0,0,1,3.126,3.542,5.343,5.343,0,0,1,.14,1.237c.016,1.607.006,3.215.006,4.822C197.022,128.492,197.012,128.563,197,128.676ZM192.018,106.3a6.881,6.881,0,0,0-3.186-6.354,6.664,6.664,0,0,0-7.51.006,6.761,6.761,0,0,0-3.206,6.35,1.108,1.108,0,0,0,.173-.051,4.231,4.231,0,0,1,2.03-.462,5.349,5.349,0,0,0,.782-.053,5.78,5.78,0,0,0,3.39-1.75c.189-.2.387-.382.615-.606.2.21.369.4.551.591a5.747,5.747,0,0,0,4.307,1.823,3.888,3.888,0,0,1,1.793.4C191.838,106.237,191.926,106.263,192.018,106.3Zm-2.371,19.807c-.143-.066-.25-.112-.353-.163-1.319-.659-2.639-1.314-3.953-1.982a.511.511,0,0,0-.525,0c-1.3.663-2.613,1.313-3.921,1.966-.116.058-.233.112-.381.183l-1.988-5.963a11.133,11.133,0,0,0-2.062.869,2.852,2.852,0,0,0-1.332,2.432c-.015.987,0,1.975,0,2.963,0,.091.017.181.026.269h19.852a.648.648,0,0,0,.029-.124c0-1.023.018-2.047,0-3.07a2.918,2.918,0,0,0-1.306-2.453,11.948,11.948,0,0,0-2.089-.892ZM181.1,107.719v.4c0,1.011,0,2.022,0,3.033,0,.321,0,.643.022.963a3.977,3.977,0,0,0,7.938-.354c.008-1.249,0-2.5,0-3.747,0-.093-.011-.185-.019-.3a7.841,7.841,0,0,1-3.966-1.577A7.873,7.873,0,0,1,181.1,107.719Zm7.4,11.248-2.006,3.348,1.99.99,1.289-3.854Zm-8.1.484,1.29,3.854,1.989-.99-2-3.347Zm4.688,1.336c.681-1.141,1.342-2.224,1.959-3.342a7.716,7.716,0,0,1-1.979.3,7.6,7.6,0,0,1-2.007-.341Zm-5.991-12.65a1.8,1.8,0,0,0-.961,1.869,1.64,1.64,0,0,0,.961,1.393Zm11.985,3.347a1.972,1.972,0,0,0,.962-1.869,1.909,1.909,0,0,0-.962-1.527Z" transform="translate(-179.197 0)" fill="#f4761b" stroke="rgba(0,0,0,0)" stroke-width="1"/>
    <path id="Path_126" data-name="Path 126" d="M356.562,458.946l-1.511,2.567a9.322,9.322,0,0,0,1.5.432c.479.132.963.25,1.453.376v7.506c-.963.269-1.91.532-2.855.8-.016,0-.025.039-.059.1l1.47,2.488-5.355,5.338-2.551-1.5a11.553,11.553,0,0,0-.429,1.513c-.132.479-.249.962-.375,1.449h-7.514c-.279-.96-.48-1.945-.782-2.966-.493.254-.908.525-1.334.773s-.86.509-1.245.737l-5.356-5.341,1.508-2.546a3.347,3.347,0,0,0-.374-.151c-.85-.224-1.7-.443-2.576-.669v-7.514c.951-.291,1.942-.469,2.957-.792-.512-.918-1.042-1.76-1.514-2.588l5.332-5.34,2.557,1.509a2.821,2.821,0,0,0,.145-.346c.193-.736.379-1.474.568-2.212.032-.126.068-.25.108-.393h7.522q.217.84.435,1.683c.077.3.148.6.228.9.029.109.078.213.139.377l2.585-1.525Zm-10.275,19.066c.029-.086.059-.163.08-.242.162-.621.333-1.241.478-1.866a.456.456,0,0,1,.332-.365c.456-.17.912-.347,1.35-.558a.566.566,0,0,1,.621.028c.6.371,1.2.718,1.784,1.06l3.138-3.128c-.046-.084-.1-.189-.16-.29-.315-.533-.626-1.068-.95-1.6a.393.393,0,0,1-.024-.427c.158-.32.295-.649.435-.977.1-.239.137-.549.312-.7a1.854,1.854,0,0,1,.736-.229c.527-.14,1.055-.277,1.593-.418v-4.419c-.1-.03-.184-.06-.275-.084-.622-.161-1.242-.327-1.867-.474a.4.4,0,0,1-.315-.288c-.193-.5-.4-.992-.618-1.481a.409.409,0,0,1,.019-.428c.34-.559.669-1.125,1-1.69a1.8,1.8,0,0,0,.085-.168l-3.134-3.155c-.585.346-1.2.7-1.811,1.076a.5.5,0,0,1-.526.025c-.466-.21-.939-.4-1.416-.586a.43.43,0,0,1-.307-.344c-.147-.625-.315-1.245-.477-1.866-.023-.089-.059-.174-.085-.253h-4.408c-.034.123-.064.226-.091.329-.155.6-.312,1.2-.46,1.8a.4.4,0,0,1-.276.327c-.511.193-1.016.4-1.516.626a.382.382,0,0,1-.4-.023c-.539-.327-1.083-.646-1.626-.967-.1-.059-.2-.111-.252-.137l-3.142,3.146c.348.59.715,1.216,1.087,1.839a.408.408,0,0,1,.048.427c-.231.509-.44,1.027-.646,1.546a.341.341,0,0,1-.273.239c-.383.085-.762.186-1.142.284-.344.089-.687.182-1.033.274v4.421c.113.032.215.063.318.09.61.159,1.218.325,1.831.47a.4.4,0,0,1,.316.289,13.968,13.968,0,0,0,.543,1.318.659.659,0,0,1-.033.748c-.367.569-.7,1.161-1.026,1.715l3.136,3.139c.076-.043.18-.1.281-.157.533-.314,1.067-.626,1.6-.948a.41.41,0,0,1,.429-.021c.5.224,1,.431,1.513.631.135.053.228.113.246.265a1.861,1.861,0,0,0,.061.242l.5,1.939Z" transform="translate(-321.282 -321.46)" fill="#f4761b" stroke="rgba(0,0,0,0)" stroke-width="1"/>
    <path id="Path_127" data-name="Path 127" d="M-5.083,473.082v25.837H-24.96V473.082Zm-1.989,1.986H-22.964v21.846c.61.077,15.644.046,15.891-.031Z" transform="translate(0 -340.379)" fill="#f4761b" stroke="rgba(0,0,0,0)" stroke-width="1"/>
    <path id="Path_128" data-name="Path 128" d="M70.876,219.144H68.908c-.007-.139-.019-.276-.019-.413q0-2.411,0-4.822,0-6.286,0-12.572a3,3,0,0,1,3.051-3.089c1.333,0,2.667,0,4,0h.381a.314.314,0,0,0,.019-.055.044.044,0,0,0-.007-.031l-2.153-2.119a9.054,9.054,0,0,1,1.342-1.407l4.609,4.6L75.559,203.8l-1.345-1.332,2.185-2.194a2.649,2.649,0,0,0-.273-.032c-1.381,0-2.762,0-4.143,0a.989.989,0,0,0-.856.353,1.355,1.355,0,0,0-.251.97q0,8.554,0,17.109Z" transform="translate(-84.899 -88.474)" fill="#f4761b" stroke="rgba(0,0,0,0)" stroke-width="1"/>
    <path id="Path_129" data-name="Path 129" d="M413.661,234.492v-1.968c.1-.01.2-.025.287-.025,1.559,0,3.119-.01,4.678,0a2.983,2.983,0,0,1,2.972,2.84c.01.166.008.333.008.5q0,5.839,0,11.678v.468a8.612,8.612,0,0,0,.773-.737c.256-.249.505-.5.758-.757l.7-.7,1.342,1.34-4.565,4.564-4.584-4.577,1.341-1.332,2.2,2.2a2.432,2.432,0,0,0,.037-.276q0-6.053,0-12.106a1,1,0,0,0-1.107-1.107c-1.476,0-2.952,0-4.428,0Z" transform="translate(-396.81 -122.725)" fill="#f4761b" stroke="rgba(0,0,0,0)" stroke-width="1"/>
    <path id="Path_130" data-name="Path 130" d="M202.1,553.6v1.993c-.413.026-.824.008-1.235.011s-.833,0-1.25,0h-4.948l-.03.069,2.159,2.157-1.359,1.352-4.587-4.584,4.589-4.582,1.362,1.355-2.224,2.228Z" transform="translate(-195.239 -409.977)" fill="#f4761b" stroke="rgba(0,0,0,0)" stroke-width="1"/>
    <path id="Path_131" data-name="Path 131" d="M279.374,316l-2.026-3.379a7.594,7.594,0,0,0,2.007.341,7.716,7.716,0,0,0,1.979-.3C280.716,313.779,280.055,314.861,279.374,316Z" transform="translate(-273.491 -195.215)" fill="#f4761b" stroke="rgba(0,0,0,0)" stroke-width="1"/>
    <path id="Path_132" data-name="Path 132" d="M408.536,522.528a7.965,7.965,0,1,1-7.911-7.972A8,8,0,0,1,408.536,522.528Zm-8.009,5.968a5.972,5.972,0,1,0-5.931-6.085A5.964,5.964,0,0,0,400.526,528.5Z" transform="translate(-377.762 -377.898)" fill="#f4761b" stroke="rgba(0,0,0,0)" stroke-width="1"/>
    <path id="Path_133" data-name="Path 133" d="M28.57,514.479v1.9c-.266.07-11.273.1-11.92.028,0-.309,0-.625-.006-.942s0-.64,0-.953C16.92,514.429,28.01,514.4,28.57,514.479Z" transform="translate(-37.637 -377.789)" fill="#f4761b" stroke="rgba(0,0,0,0)" stroke-width="1"/>
    <path id="Path_134" data-name="Path 134" d="M28.85,598.04c0,.6,0,1.181,0,1.763a1.427,1.427,0,0,1-.025.184H16.939v-1.92C17.186,598,28.1,597.964,28.85,598.04Z" transform="translate(-37.905 -453.385)" fill="#f4761b" stroke="rgba(0,0,0,0)" stroke-width="1"/>
    <path id="Path_135" data-name="Path 135" d="M28.719,639.813v1.9c-.265.082-11.548.095-11.908.012v-1.874C17.08,639.771,27.875,639.735,28.719,639.813Z" transform="translate(-37.789 -491.177)" fill="#f4761b" stroke="rgba(0,0,0,0)" stroke-width="1"/>
    <path id="Path_136" data-name="Path 136" d="M66.608,556.553v1.911c-.246.073-7.409.095-7.919.022v-1.933Z" transform="translate(-75.675 -415.893)" fill="#f4761b" stroke="rgba(0,0,0,0)" stroke-width="1"/>
    <path id="Path_137" data-name="Path 137" d="M24.785,681.872v1.943H16.861v-1.943Z" transform="translate(-37.834 -529.266)" fill="#f4761b" stroke="rgba(0,0,0,0)" stroke-width="1"/>
    <path id="Path_138" data-name="Path 138" d="M16.821,558.449v-1.908h1.951v1.915A7.58,7.58,0,0,1,16.821,558.449Z" transform="translate(-37.798 -415.882)" fill="#f4761b" stroke="rgba(0,0,0,0)" stroke-width="1"/>
    <path id="Path_139" data-name="Path 139" d="M121.2,683.609v-1.962c.653,0,1.289,0,1.949,0v1.961Z" transform="translate(-132.224 -529.059)" fill="#f4761b" stroke="rgba(0,0,0,0)" stroke-width="1"/>
    <path id="Path_140" data-name="Path 140" d="M442.312,560.291a3.983,3.983,0,1,1-4.015-3.982A4,4,0,0,1,442.312,560.291Zm-1.994,0a1.992,1.992,0,1,0-1.964,1.993A2,2,0,0,0,440.318,560.3Z" transform="translate(-415.523 -415.672)" fill="#f4761b" stroke="rgba(0,0,0,0)" stroke-width="1"/>
  </g>
</svg>
