<svg xmlns="http://www.w3.org/2000/svg" width="61.905" height="45.149" viewBox="0 0 61.905 45.149">
  <g id="Group_81" data-name="Group 81" transform="translate(-9.337 -83.611)">
    <path id="Path_104" data-name="Path 104" d="M47,193.868v-.508q0-17.243,0-34.487a4.112,4.112,0,0,1,.02-.537.831.831,0,0,1,.759-.737,3.6,3.6,0,0,1,.394-.015H63.492c.108,0,.216,0,.323.006a.867.867,0,0,1,.866.907c.011.478,0,.957,0,1.435,0,.419.01.838-.008,1.256a.842.842,0,0,1-.594.779.891.891,0,0,1-.949-.256,1,1,0,0,1-.224-.7c0-.467,0-.933,0-1.4,0-.071-.011-.142-.016-.21-.258-.07-13.642-.089-14.109-.019v33.934c.211-.1.39-.182.571-.261.557-.244,1.1-.517,1.676-.72a3.869,3.869,0,0,1,2.706.051c.513.191,1.009.433,1.5.669a10.281,10.281,0,0,0,1.814.761,1.82,1.82,0,0,0,1.095,0c.482-.173.961-.36,1.43-.565.547-.239,1.075-.521,1.624-.756a4.3,4.3,0,0,1,3.615.068c.533.242,1.048.523,1.582.761.413.184.84.341,1.267.49a1.848,1.848,0,0,0,1.095.009,9.275,9.275,0,0,0,1.751-.727c.407-.2.813-.405,1.23-.585a4.379,4.379,0,0,1,3.684.049c.533.241,1.05.517,1.582.761.358.164.723.313,1.093.447a2.129,2.129,0,0,0,1.577-.039c.518-.214,1.026-.454,1.538-.684s.99-.483,1.5-.669A4.276,4.276,0,0,1,86,192.54c.546.242,1.073.525,1.615.776.335.155.681.289,1.025.424a2.228,2.228,0,0,0,1.713-.035c.5-.2.98-.441,1.471-.659.534-.237,1.059-.5,1.608-.7a4.075,4.075,0,0,1,2.945.1c.444.175.868.4,1.3.6l.582.27V159.365H84.171a2.663,2.663,0,0,0-.03.271,7.344,7.344,0,0,0,.005.9,3.85,3.85,0,0,1-.161,1.013c0,.012,0,.03-.009.034a5.868,5.868,0,0,1-.7.4c-.157.065-.308-.038-.449-.153a1.27,1.27,0,0,1-.454-1.1c.012-.67,0-1.34,0-2.01a2.489,2.489,0,0,1,.028-.429.83.83,0,0,1,.729-.687,3.549,3.549,0,0,1,.43-.017H98.884c.12,0,.24,0,.358.01a.867.867,0,0,1,.818.843c.01.143,0,.287,0,.43q0,17.261,0,34.523v.475c.121.035.224.057.322.094a.888.888,0,0,1,.51,1.152.811.811,0,0,1-.747.516,4.241,4.241,0,0,1-2.083-.433c-.608-.279-1.218-.556-1.811-.865a3.039,3.039,0,0,0-2.983-.008c-.593.309-1.2.585-1.811.864a4.6,4.6,0,0,1-4.019,0c-.608-.28-1.219-.555-1.811-.864a3.025,3.025,0,0,0-2.983,0c-.433.228-.881.429-1.324.636-.281.132-.561.269-.851.376a4.494,4.494,0,0,1-3.49-.088c-.656-.289-1.308-.589-1.944-.919a3.071,3.071,0,0,0-3.016,0c-.582.3-1.183.573-1.779.849a4.6,4.6,0,0,1-4.051,0c-.606-.284-1.217-.557-1.811-.864a3.051,3.051,0,0,0-2.985.018c-.571.3-1.16.565-1.744.839a4.6,4.6,0,0,1-4.084,0c-.7-.328-1.41-.651-2.11-.986a2.584,2.584,0,0,0-2.319.005c-.66.309-1.315.628-1.982.921-.37.162-.759.283-1.142.415a3.264,3.264,0,0,1-1.209.091.8.8,0,0,1-.7-.712.88.88,0,0,1,.527-.929C46.731,193.937,46.837,193.915,47,193.868Z" transform="translate(-33.241 -66.89)" fill="#f4761b"/>
    <path id="Path_105" data-name="Path 105" d="M259.451,109.286c-.592-.165-.854-.427-.881-.865-.028-.459.2-.716.874-.994v-2.908c-.491-.137-.88-.379-.86-.972.014-.424.234-.652.861-.891V99.733c-.582-.162-.85-.432-.875-.869-.025-.457.2-.718.89-1v-.416q0-6.28,0-12.559c0-.108,0-.215,0-.323a.868.868,0,0,1,.961-.951q4,0,8,0c.825,0,1.651.019,2.476-.007a.889.889,0,0,1,.938.872c.005.131.006.263.006.394q0,5.1,0,10.191v.439c.531.113.874.39.881.944.005.423-.248.677-.859.9V100.3a.916.916,0,0,1,.712.412,1.212,1.212,0,0,1,.148.54c0,.428-.275.7-.82.857a19.085,19.085,0,0,0-.036,2.95c.476.12.861.372.853.93-.008.535-.36.8-.879.907,0,.137,0,.255,0,.373,0,.586-.006,1.172,0,1.758a3.222,3.222,0,0,1-.346,1.487,8.56,8.56,0,0,1-1.318,1.914,11.425,11.425,0,0,1-3.991,2.921,1.3,1.3,0,0,1-1.037.029,9.541,9.541,0,0,1-3.749-2.447,13.035,13.035,0,0,1-1.2-1.516A4.2,4.2,0,0,1,259.451,109.286Zm1.806-23.9v12.18l8.8-1.7V85.387Zm8.8,21.842-8.841,1.7a3.2,3.2,0,0,0,.079.56,5.04,5.04,0,0,0,.333.791,7.421,7.421,0,0,0,3.854,3.276.368.368,0,0,0,.338-.033,9.492,9.492,0,0,0,3.747-3.2,2.567,2.567,0,0,0,.512-1.713c-.031-.344,0-.693-.006-1.04C270.075,107.47,270.065,107.365,270.059,107.229Zm0-9.555-8.8,1.7v2.972l8.8-1.7Zm0,4.777-8.8,1.7v2.972l8.8-1.7Z" transform="translate(-225.362)" fill="#f4761b"/>
    <path id="Path_106" data-name="Path 106" d="M10.209,538.592a.82.82,0,0,1-.872-.833.878.878,0,1,1,1.755.014A.82.82,0,0,1,10.209,538.592Z" transform="translate(0 -409.857)" fill="#f4761b"/>
    <path id="Path_107" data-name="Path 107" d="M638.22,538.59a.823.823,0,0,1-.874-.833.88.88,0,1,1,1.761.012A.822.822,0,0,1,638.22,538.59Z" transform="translate(-567.865 -409.855)" fill="#f4761b"/>
    <path id="Path_108" data-name="Path 108" d="M223.989,218.775c-.066.212-.071.491-.213.618a1.536,1.536,0,0,1-.736.312c-.24.043-.754-.5-.717-.726a1.28,1.28,0,0,1,.193-.665,1.4,1.4,0,0,1,.733-.317C223.513,217.954,223.982,218.506,223.989,218.775Z" transform="translate(-192.587 -121.514)" fill="#f4761b"/>
    <path id="Path_109" data-name="Path 109" d="M305.035,441.684c-.07.221-.08.5-.226.649a1.376,1.376,0,0,1-.7.313c-.251.046-.786-.518-.744-.747a.873.873,0,0,1,.9-.968C304.531,440.886,305.021,441.423,305.035,441.684Z" transform="translate(-265.867 -323.098)" fill="#f4761b"/>
    <path id="Path_110" data-name="Path 110" d="M426.459,259.42c.055.029.158.08.258.137a.391.391,0,0,1,.074.077c.4.418.427.532.258,1.072-.007.023-.005.059-.02.067a4.885,4.885,0,0,1-.716.377.429.429,0,0,1-.461-.2.855.855,0,0,0-.146-.156.481.481,0,0,1-.17-.6c.051-.143.035-.352.131-.429a3.408,3.408,0,0,1,.661-.342C426.348,259.412,426.375,259.42,426.459,259.42Z" transform="translate(-376.304 -158.97)" fill="#f4761b"/>
    <path id="Path_111" data-name="Path 111" d="M400.717,401.125c-.026.146-.054.31-.083.474,0,.023,0,.059-.018.067a4.919,4.919,0,0,1-.705.4.424.424,0,0,1-.465-.195.34.34,0,0,0-.025-.026c-.4-.41-.423-.5-.248-1.037a.367.367,0,0,1,.143-.188c.163-.1.338-.176.509-.26a.3.3,0,0,1,.1-.03A1,1,0,0,1,400.717,401.125Z" transform="translate(-352.407 -286.383)" fill="#f4761b"/>
    <path id="Path_112" data-name="Path 112" d="M427.2,223.8c-.195.1-.372.2-.556.279a.456.456,0,0,1-.579-.109c-.076-.075-.141-.163-.222-.232-.164-.138-.15-.3-.154-.5-.012-.546.408-.638.755-.819a.25.25,0,0,1,.1-.018.96.96,0,0,1,.752.844C427.28,223.42,427.242,223.595,427.2,223.8Z" transform="translate(-376.481 -125.497)" fill="#f4761b"/>
    <path id="Path_113" data-name="Path 113" d="M244.276,398.637c.06-.214.057-.5.2-.625a1.569,1.569,0,0,1,.733-.32c.231-.048.771.493.738.708a1.291,1.291,0,0,1-.187.668,1.42,1.42,0,0,1-.727.33C244.769,399.447,244.286,398.9,244.276,398.637Z" transform="translate(-212.439 -283.999)" fill="#f4761b"/>
    <path id="Path_114" data-name="Path 114" d="M224.078,255.568c-.028.163-.054.352-.1.537a.284.284,0,0,1-.127.158c-.165.095-.337.178-.51.259a.411.411,0,0,1-.462-.084c-.064-.053-.11-.128-.174-.18a.666.666,0,0,1-.234-.753.6.6,0,0,1,.407-.521,1.923,1.923,0,0,0,.223-.113.616.616,0,0,1,.165-.065C223.528,254.769,224.08,255.272,224.078,255.568Z" transform="translate(-192.697 -154.799)" fill="#f4761b"/>
    <path id="Path_115" data-name="Path 115" d="M223.959,292.83c-.038.135-.035.427-.18.571a1.521,1.521,0,0,1-.729.331c-.226.05-.767-.5-.737-.714a1.269,1.269,0,0,1,.18-.672,1.468,1.468,0,0,1,.73-.327C223.461,291.969,223.96,292.494,223.959,292.83Z" transform="translate(-192.578 -188.447)" fill="#f4761b"/>
    <path id="Path_116" data-name="Path 116" d="M223.956,329.766c-.037.134-.037.42-.179.571a1.43,1.43,0,0,1-.694.334c-.242.058-.8-.482-.773-.718a1.257,1.257,0,0,1,.184-.67,1.461,1.461,0,0,1,.727-.336C223.454,328.9,223.956,329.432,223.956,329.766Z" transform="translate(-192.575 -221.837)" fill="#f4761b"/>
    <path id="Path_117" data-name="Path 117" d="M427.122,334.269c-.039.153-.029.446-.171.593a1.519,1.519,0,0,1-.726.34c-.22.053-.785-.488-.755-.7a1.381,1.381,0,0,1,.2-.7,1.347,1.347,0,0,1,.7-.32C426.6,333.434,427.121,333.963,427.122,334.269Z" transform="translate(-376.28 -225.94)" fill="#f4761b"/>
    <path id="Path_118" data-name="Path 118" d="M371.5,426.237c.07-.222.077-.511.225-.649a1.425,1.425,0,0,1,.737-.3c.248-.036.749.516.709.733s-.054.52-.2.66a1.369,1.369,0,0,1-.736.307C371.979,427.02,371.509,426.476,371.5,426.237Z" transform="translate(-327.477 -308.952)" fill="#f4761b"/>
    <path id="Path_119" data-name="Path 119" d="M340.255,442.3a2.084,2.084,0,0,1,.331.163c.094.07.16.178.25.255a.458.458,0,0,1,.169.534c-.05.158-.026.378-.127.471a1.907,1.907,0,0,1-.624.333.405.405,0,0,1-.34-.035,2.406,2.406,0,0,1-.509-.546c-.06-.094,0-.276.028-.411s.059-.334.159-.413A3.956,3.956,0,0,1,340.255,442.3Z" transform="translate(-298.433 -324.336)" fill="#f4761b"/>
    <path id="Path_120" data-name="Path 120" d="M427.117,297.349c-.04.151-.033.443-.176.589a1.544,1.544,0,0,1-.727.335c-.217.052-.781-.494-.749-.7a1.384,1.384,0,0,1,.2-.7,1.363,1.363,0,0,1,.7-.311C426.6,296.513,427.112,297.034,427.117,297.349Z" transform="translate(-376.275 -192.555)" fill="#f4761b"/>
    <path id="Path_121" data-name="Path 121" d="M227.508,365.287a1.57,1.57,0,0,1,.276.149c.1.081.175.195.272.282a.554.554,0,0,1,.147.472c.008.533-.38.657-.743.822a.381.381,0,0,1-.175.016,1.019,1.019,0,0,1-.7-.851c0-.526.35-.7.747-.857A1.133,1.133,0,0,1,227.508,365.287Z" transform="translate(-196.439 -254.7)" fill="#f4761b"/>
    <path id="Path_122" data-name="Path 122" d="M421,370.121c-.041.233-.068.435-.117.63a.28.28,0,0,1-.139.149c-.759.394-.745.419-1.336-.246a.327.327,0,0,1-.065-.225c.016-.177.057-.352.089-.527,0-.023.008-.057.024-.066a4.426,4.426,0,0,1,.71-.388.454.454,0,0,1,.487.225c.072.094.167.171.241.263A1.217,1.217,0,0,1,421,370.121Z" transform="translate(-370.736 -258.447)" fill="#f4761b"/>
    <path id="Path_123" data-name="Path 123" d="M272.745,423.888c-.063.213-.064.493-.2.623a1.573,1.573,0,0,1-.731.328c-.225.048-.77-.509-.733-.719a1.4,1.4,0,0,1,.213-.689,1.274,1.274,0,0,1,.7-.3C272.256,423.086,272.736,423.625,272.745,423.888Z" transform="translate(-236.672 -307)" fill="#f4761b"/>
  </g>
</svg>
