<svg xmlns="http://www.w3.org/2000/svg" width="64.873" height="64.293" viewBox="0 0 64.873 64.293">
  <g id="Group_84" data-name="Group 84" transform="translate(241.035 -101.109)">
    <path id="Path_141" data-name="Path 141" d="M-190.534,146.528v4.021a2.747,2.747,0,0,0,.278.033c.236.005.472-.005.707,0a1.014,1.014,0,0,1,1.036.965,2.8,2.8,0,0,1,.013.334q0,4.856,0,9.712a3.117,3.117,0,0,1-1.3,2.7,3.052,3.052,0,0,1-4.8-2.115,5.881,5.881,0,0,1-.036-.668q0-4.782,0-9.563a3.225,3.225,0,0,1,.02-.445,1,1,0,0,1,1-.92c.21-.012.422,0,.632,0,.121,0,.241-.011.38-.017v-4c-.88-.177-1.75-.306-2.593-.536s-1.635-.556-2.489-.853c0,.123-.01.264-.01.4q0,8.93,0,17.861c0,.136,0,.273,0,.409a1,1,0,0,1-1.019,1.012c-.074,0-.149,0-.223,0H-239.27c-.1,0-.2,0-.3,0a1,1,0,0,1-.941-.85,3.547,3.547,0,0,1-.026-.519q0-28.223,0-56.447a3.566,3.566,0,0,1,.018-.445.99.99,0,0,1,.968-.9c.124-.007.248,0,.372,0h11.911c0-.165,0-.3,0-.429,0-.831,0-1.662,0-2.493a1.039,1.039,0,0,1,1.172-1.165q6.976,0,13.953,0a1.053,1.053,0,0,1,1.189,1.19c0,.831,0,1.662,0,2.493,0,.121.011.242.018.4h.456c3.82,0,7.64.016,11.46-.012a1.169,1.169,0,0,1,1.334,1.32c-.025,3.944-.011,7.888-.011,11.833v.476c.17-.066.3-.108.417-.162a14.68,14.68,0,0,1,6.632-1.217,14.069,14.069,0,0,1,8.09,2.81,13.951,13.951,0,0,1,5.3,7.821,14.235,14.235,0,0,1-4.742,14.7,13.916,13.916,0,0,1-6.911,3.071C-189.432,146.417-189.963,146.463-190.534,146.528Zm-9.189,16.294v-.405q0-9.06.006-18.12a.629.629,0,0,0-.292-.581,13.089,13.089,0,0,1-3.012-3.011.722.722,0,0,0-.675-.328q-7.98.014-15.96.007h-.444v-2.035h15.647a14.79,14.79,0,0,1-1.233-4.08h-3.138c-1.029,0-2.059,0-3.088,0s-2.07.026-3.1-.019v-2.026h4.581q1.135,0,2.269,0c.764,0,1.527.006,2.267,0a.609.609,0,0,0,.051-.12c.009-.124.016-.247.019-.371A13.8,13.8,0,0,1-204.5,126.2a14,14,0,0,1,4.543-5.5.5.5,0,0,0,.238-.459q-.01-6.1-.006-12.2a2.379,2.379,0,0,0-.03-.275c-.573-.072-10.906-.046-11.2.032,0,.313.009.634,0,.955a.992.992,0,0,1-.863,1.007,2.394,2.394,0,0,1-.444.03q-6.846,0-13.691,0a2.416,2.416,0,0,1-.552-.055.941.941,0,0,1-.753-.9c-.016-.259,0-.521-.01-.781,0-.1-.017-.19-.028-.3h-11.16a.632.632,0,0,0-.033.129q0,27.366,0,54.731a1.01,1.01,0,0,0,.018.147.068.068,0,0,0,.017.031.37.37,0,0,0,.044.035Zm8.159-42.842A12.223,12.223,0,0,0-203.8,132.174a12.207,12.207,0,0,0,12.1,12.288,12.229,12.229,0,0,0,12.373-12.173A12.243,12.243,0,0,0-191.564,119.98Zm-33.655-12.3c.427.076,11.928.06,12.212-.014v-3.956c-.409-.081-11.924-.064-12.212.018Zm32.656,44.973c-.007.138-.017.259-.017.38q0,4.295,0,8.589a2.528,2.528,0,0,0,.012.334,1.021,1.021,0,0,0,1,.877,1.02,1.02,0,0,0,1-.874,2.75,2.75,0,0,0,.014-.371q0-4.276,0-8.552c0-.121-.011-.242-.017-.383Z" fill="#f4761b" stroke="rgba(0,0,0,0)" stroke-width="1"/>
    <path id="Path_143" data-name="Path 143" d="M-192.437,204.242h5.842a3.382,3.382,0,0,1,.372.009,1.01,1.01,0,0,1,.933.986c.006.1,0,.2,0,.3q0,4.837,0,9.675c0,.112,0,.224-.006.335a.993.993,0,0,1-.83.919,2.254,2.254,0,0,1-.407.03q-5.9,0-11.8,0a2.206,2.206,0,0,1-.407-.031.941.941,0,0,1-.787-.746,2.338,2.338,0,0,1-.049-.553c0-3.188.011-6.375-.01-9.563-.006-.862.369-1.387,1.374-1.369C-196.282,204.267-194.359,204.242-192.437,204.242Zm-5.062,10.182h10.157v-8.1c-.488-.076-9.885-.052-10.157.024Z" transform="translate(-36.891 -92.432)" fill="#f4761b" stroke="rgba(0,0,0,0)" stroke-width="1"/>
    <path id="Path_144" data-name="Path 144" d="M-192.352,401.566h-5.767c-.149,0-.3,0-.446-.013a.972.972,0,0,1-.9-.808,1.914,1.914,0,0,1-.032-.369q0-4.93,0-9.861a1.028,1.028,0,0,1,.722-1.126,1.312,1.312,0,0,1,.4-.056q6.028,0,12.055,0a1.014,1.014,0,0,1,1.1,1.118c0,3.324-.007,6.648.009,9.972a1.083,1.083,0,0,1-1.158,1.149C-188.358,401.555-190.355,401.566-192.352,401.566Zm-5.062-10.173V399.5c.79.078,9.887.044,10.151-.035v-8.077Z" transform="translate(-36.966 -259.149)" fill="#f4761b" stroke="rgba(0,0,0,0)" stroke-width="1"/>
    <path id="Path_145" data-name="Path 145" d="M-192.44,586.5c-1.935,0-3.869-.022-5.8.009a1.16,1.16,0,0,1-1.328-1.333c.019-3.2.007-6.4.009-9.6a2.727,2.727,0,0,1,.026-.444.985.985,0,0,1,.968-.86c.111-.006.223,0,.335,0,3.881,0,7.763.015,11.644-.011a1.162,1.162,0,0,1,1.32,1.33c-.03,3.2-.012,6.4-.012,9.6,0,.112,0,.224,0,.335a.985.985,0,0,1-.943.969c-.135.012-.273.01-.409.01Zm-5.055-2.057h10.162V576.32H-197.5Z" transform="translate(-36.896 -425.709)" fill="#f4761b" stroke="rgba(0,0,0,0)" stroke-width="1"/>
    <path id="Path_146" data-name="Path 146" d="M-34.8,658.666v-2h18.312v2Z" transform="translate(-185.304 -499.936)" fill="#f4761b" stroke="rgba(0,0,0,0)" stroke-width="1"/>
    <path id="Path_147" data-name="Path 147" d="M-34.791,288.812V286.82h18.31v1.992Z" transform="translate(-185.313 -166.819)" fill="#f4761b" stroke="rgba(0,0,0,0)" stroke-width="1"/>
    <path id="Path_148" data-name="Path 148" d="M16.444,597.019v-2H29.666v2Z" transform="translate(-231.46 -444.414)" fill="#f4761b" stroke="rgba(0,0,0,0)" stroke-width="1"/>
    <path id="Path_149" data-name="Path 149" d="M29.681,225.188v2H16.46v-2Z" transform="translate(-231.474 -111.308)" fill="#f4761b" stroke="rgba(0,0,0,0)" stroke-width="1"/>
    <path id="Path_150" data-name="Path 150" d="M170.289,317.376a10.2,10.2,0,1,1-10.213-10.188A10.2,10.2,0,0,1,170.289,317.376Zm-10.154-8.147a8.155,8.155,0,1,0,8.1,8.215A8.14,8.14,0,0,0,160.136,309.229Z" transform="translate(-351.651 -185.164)" fill="#f4761b" stroke="rgba(0,0,0,0)" stroke-width="1"/>
    <path id="Path_151" data-name="Path 151" d="M-159.922,239.053c-.334.274-.639.525-.946.775q-1.973,1.609-3.945,3.219a1.17,1.17,0,0,1-.995.3.87.87,0,0,1-.633-.414c-.391-.687-.768-1.382-1.163-2.094l1.792-1.022.529.955,4.077-3.3Z" transform="translate(-65.689 -122.365)" fill="#f4761b" stroke="rgba(0,0,0,0)" stroke-width="1"/>
    <path id="Path_152" data-name="Path 152" d="M-167.626,425.771l1.793-1.013.532.948,4.076-3.3,1.293,1.608c-.082.061-.161.114-.234.173q-2.322,1.887-4.641,3.779a1.253,1.253,0,0,1-.916.33.845.845,0,0,1-.719-.4C-166.844,427.2-167.224,426.5-167.626,425.771Z" transform="translate(-65.669 -288.938)" fill="#f4761b" stroke="rgba(0,0,0,0)" stroke-width="1"/>
    <path id="Path_153" data-name="Path 153" d="M-153.236,608.744l1.4-1.388,1.43,1.423-1.392,1.38c.465.532.977.96,1.4,1.427L-151.832,613l-1.373-1.4-1.417,1.419-1.447-1.445,1.394-1.384-1.379-1.376,1.443-1.442Z" transform="translate(-76.079 -455.523)" fill="#f4761b" stroke="rgba(0,0,0,0)" stroke-width="1"/>
  </g>
</svg>
