<svg xmlns="http://www.w3.org/2000/svg" width="57.955" height="57.962" viewBox="0 0 57.955 57.962">
  <path id="Path_124" data-name="Path 124" d="M-420.95,107.264h3.711v-1.85h1.89v5.645h-1.872V109.2h-9.786a7.212,7.212,0,0,1-1.708,2.829H-414.4v1.887h-56.955v-1.878h14.223l.036-.061a6.953,6.953,0,0,1-1.648-2.781h-9.785v1.867h-1.885V105.41c.615-.037,1.224-.017,1.867-.011v1.81a28.188,28.188,0,0,0,3.676.049c.064-.275-1.534-20.735-1.705-21.8-.089-.007-.185-.019-.28-.019-.518,0-1.036-.015-1.553,0a1,1,0,0,1-1.071-1.066q.038-1.8,0-3.6a.969.969,0,0,1,1.028-1.027.389.389,0,0,0,.425-.272c.439-.9.905-1.787,1.331-2.694a4.223,4.223,0,0,0,.261-.948c.256-1.25.512-2.5.744-3.756a1.009,1.009,0,0,1,1.311-.84c.827.228,1.664.419,2.5.625.1.024.192.043.309.068.039-.085.076-.16.109-.238a1.2,1.2,0,0,0,.054-.156,11.536,11.536,0,0,1,1.489-3.255c.66-1.028,1.273-2.086,1.889-3.142a1.061,1.061,0,0,1,1.149-.584c.808.105,1.616.2,2.424.3l.183.02c.061-.1.123-.206.181-.31.579-1.051,1.163-2.1,1.732-3.155a1.518,1.518,0,0,1,.694-.674q1.718-.844,3.425-1.712a1.839,1.839,0,0,1,.857-.2c2.588,0,5.177,0,7.765.006a1.334,1.334,0,0,0,.631-.147c1.039-.53,2.083-1.049,3.127-1.57a1.017,1.017,0,0,1,1.4.229c1.106,1.106,2.208,2.216,3.319,3.316a1.529,1.529,0,0,0,.487.321q2.063.84,4.136,1.655a1.3,1.3,0,0,1,.731.671c.575,1.165,1.15,2.329,1.744,3.484a1.112,1.112,0,0,1-.08,1.264c-.382.539-.737,1.1-1.1,1.647-.061.091-.117.185-.187.3.078.068.147.134.222.19q1.308.982,2.619,1.959a2.689,2.689,0,0,0,.4.236q1.651.832,3.305,1.656a1.615,1.615,0,0,1,.657.58c.554.848,1.112,1.694,1.687,2.527a1.068,1.068,0,0,1,0,1.368c-.271.373-.514.767-.785,1.175a1.122,1.122,0,0,0,.165.056.955.955,0,0,1,.885.976c0,.066,0,.132,0,.2q0,1.685,0,3.37c0,.786-.362,1.144-1.157,1.146-.474,0-.947,0-1.421,0h-.352Zm-18.738-39.869c-.1-.006-.167-.013-.233-.013q-4.51,0-9.021,0a.691.691,0,0,0-.473.185q-2.383,1.992-4.774,3.974a.612.612,0,0,0-.227.381c-.247,1.263-.508,2.524-.755,3.787a1.022,1.022,0,0,0,.018.421c.193.8.4,1.6.6,2.4.1.394.2.788.3,1.209h21.945c.077,0,.155.005.231,0a2.115,2.115,0,0,0,.221-.045c-.116-.35-.231-.671-.327-1a.855.855,0,0,0-.336-.467c-1.026-.76-2.042-1.536-3.072-2.291a2.054,2.054,0,0,1-.685-.864q-1.484-3.369-2.986-6.73C-439.4,68.03-439.542,67.72-439.687,67.395Zm-19.112,37.99h-.322c-.363,0-.727.008-1.09,0a.934.934,0,0,1-1-.925c-.091-1.009-.169-2.019-.25-3.028-.1-1.218-.192-2.437-.289-3.655q-.185-2.3-.372-4.609l-.239-2.963c-.049-.6-.1-1.207-.144-1.811a.935.935,0,0,1,.934-1.049c.1-.006.2,0,.3,0h36.807c.121,0,.243,0,.363.009a.9.9,0,0,1,.849.891,5.636,5.636,0,0,1-.027.627c-.144,1.778-.292,3.555-.434,5.333-.122,1.525-.237,3.052-.358,4.577-.148,1.866-.3,3.731-.449,5.6a.983.983,0,0,1-1.066,1.011c-.374.007-.749,0-1.123,0a2.229,2.229,0,0,0-.237.025l.265,1.838a34.981,34.981,0,0,0,3.844-.029l1.741-21.765h-43.551l1.744,21.791c.441.064,3.616.047,3.84-.011Zm-1.353-11.391c.1,1.275.188,2.528.307,3.77.645.066,33.679.038,33.945-.031l.3-3.739Zm-.161-1.951c.462.071,34.611.05,34.846-.014a15.359,15.359,0,0,0,.183-2.781h-35.255Zm-7.258-8.535H-418.2v-1.85c-.457-.07-49.126-.049-49.373.023Zm26.333-18.1.017.073h.321c.584,0,1.167,0,1.751,0a.974.974,0,0,1,.962.62c.036.08.074.16.109.24q1.394,3.138,2.789,6.276c.051.114.107.226.18.38.1-.148.174-.244.24-.343q1.266-1.9,2.529-3.793a1.023,1.023,0,0,1,1.185-.489c.643.146,1.294.261,1.941.389l2.054.4,1.243-1.858c-.463-.927-.916-1.82-1.354-2.721a.718.718,0,0,0-.416-.383c-1.32-.52-2.635-1.054-3.954-1.577a1.87,1.87,0,0,1-.654-.43q-1.443-1.454-2.9-2.9c-.085-.085-.172-.167-.267-.26-.1.045-.192.08-.279.123-.758.378-1.512.765-2.276,1.131a.552.552,0,0,0-.323.415c-.233.951-.492,1.9-.707,2.851a1.378,1.378,0,0,1-.722.964C-440.267,64.808-440.749,65.116-441.238,65.411Zm7.248,9.343c.136.105.24.187.345.266.837.628,1.667,1.264,2.514,1.878a1.682,1.682,0,0,1,.655.917c.164.548.354,1.088.535,1.631.031.092.07.18.114.292h9.818a.913.913,0,0,0,.23-.005.394.394,0,0,0,.217-.115c.4-.59.8-1.186,1.2-1.786-.425-.639-.844-1.259-1.251-1.886a.988.988,0,0,0-.412-.362q-1.569-.773-3.131-1.562a3.422,3.422,0,0,1-.5-.311q-1.588-1.186-3.167-2.384a1.5,1.5,0,0,0-.651-.29c-.746-.14-1.489-.293-2.234-.439-.44-.087-.882-.17-1.328-.255Zm7.933,24.945H-459.7l.3,3.746a.45.45,0,0,0,.1.036c.374,0,.749-.007,1.123.012a.584.584,0,0,0,.549-.262A6.379,6.379,0,0,1-453,100.67a6.459,6.459,0,0,1,5.856,2.551.62.62,0,0,0,.547.273c2.478-.01,4.956-.006,7.434-.006h.307c.24-.279.451-.549.685-.795a6.613,6.613,0,0,1,7.86-1.3,6.877,6.877,0,0,1,2.249,1.908c.066.085.112.187.25.185.472,0,.944,0,1.45,0Zm-7.3,2.836a4.75,4.75,0,0,0-4.771,4.66,4.753,4.753,0,0,0,4.734,4.834,4.752,4.752,0,0,0,4.775-4.692A4.76,4.76,0,0,0-433.361,102.535Zm-23.769,4.712a4.754,4.754,0,0,0,4.8,4.784,4.748,4.748,0,0,0,4.691-4.764,4.755,4.755,0,0,0-4.791-4.736A4.746,4.746,0,0,0-457.13,107.247Zm.727-27.531c-.024-.151-.04-.28-.065-.406-.166-.83-.341-1.659-.5-2.491a.61.61,0,0,0-.323-.456c-1.118-.66-2.234-1.323-3.338-2.005a4.5,4.5,0,0,0-1.418-.593c-.642-.14-1.277-.311-1.929-.472a1.775,1.775,0,0,0-.068.2c-.223,1.111-.439,2.222-.67,3.331a3.029,3.029,0,0,1-.232.682c-.313.655-.645,1.3-.968,1.951-.037.074-.065.154-.108.259ZM-440.3,60.743c-.108-.008-.173-.017-.238-.017q-3.336,0-6.672,0a.967.967,0,0,0-.406.1c-.968.474-1.931.958-2.9,1.435a.746.746,0,0,0-.35.328c-.412.765-.835,1.525-1.252,2.288-.04.073-.066.154-.106.25l.943.123a18.826,18.826,0,0,0,3.024.232c.814-.027,1.63-.032,2.444,0a2.351,2.351,0,0,0,1.419-.4c1.089-.686,2.2-1.333,3.306-2,.11-.066.227-.119.264-.272C-440.655,62.145-440.479,61.464-440.3,60.743Zm-19.5,11.905,2.932,1.763c.034-.121.063-.2.08-.289.182-.906.383-1.809.534-2.721a1.889,1.889,0,0,1,.733-1.233c1.15-.924,2.274-1.881,3.408-2.827.078-.065.15-.137.271-.249l-4.791-.6c-.076.122-.14.223-.2.326-.641,1.066-1.261,2.146-1.928,3.2A14.719,14.719,0,0,0-459.8,72.648Zm21.744,39.366a6.992,6.992,0,0,1-1.693-2.819h-6.272a7.053,7.053,0,0,1-1.684,2.819Zm-2.021-4.752.269-1.838c-.318-.066-5.931-.054-6.149.008l.265,1.83Z" transform="translate(471.855 -56.452)" fill="#f4761b" stroke="rgba(0,0,0,0)" stroke-width="1"/>
</svg>
