<svg xmlns="http://www.w3.org/2000/svg" width="47.884" height="47.904" viewBox="0 0 47.884 47.904">
  <g id="Group_86" data-name="Group 86" transform="translate(-210.726 -113.988)">
    <path id="Path_175" data-name="Path 175" d="M215.5,157.1h2.391v-.327q0-2.975,0-5.95a2.439,2.439,0,0,1,.682-1.769,2.342,2.342,0,0,1,1.719-.73q1.582-.017,3.164,0a2.374,2.374,0,0,1,2.343,1.8,3.213,3.213,0,0,1,.08.749c.006,1.956,0,3.913,0,5.869v.317a7.281,7.281,0,0,0,1.574.025c.006-.088.018-.182.018-.277q0-1.555,0-3.11,0-4.3,0-8.6a2.386,2.386,0,0,1,2.309-2.362q1.676-.023,3.353,0a2.376,2.376,0,0,1,2.317,2.24c.008.135.007.27.007.405q0,5.666,0,11.333v.344a7.015,7.015,0,0,0,1.587.015c0-.082.014-.169.014-.257,0-5.22.009-10.44-.007-15.66a2.4,2.4,0,0,1,2.341-2.415c1.1-.03,2.2-.018,3.3,0a2.387,2.387,0,0,1,2.338,2.279c.006.135.006.27.006.405q0,7.654,0,15.308v.36h1.577a1.756,1.756,0,0,0,.027-.179c0-.09,0-.18,0-.27q0-10.927,0-21.854a2.343,2.343,0,0,1,1.069-2.039,2.224,2.224,0,0,1,1.271-.4c1.082-.006,2.163-.01,3.245,0a2.382,2.382,0,0,1,2.389,2.364c0,.117,0,.234,0,.352q0,10.832,0,21.664v.359c.109.008.188.018.266.018.433,0,.865-.006,1.3,0a2.406,2.406,0,0,1,2,1.055,2.3,2.3,0,0,1-.477,3.15,2.366,2.366,0,0,1-1.562.572q-20.727-.007-41.454,0a3.993,3.993,0,0,1-3.936-3.406,5.14,5.14,0,0,1-.029-.783q0-7.681,0-15.363,0-12.847,0-25.694a3.405,3.405,0,0,1,.075-.83A2.379,2.379,0,0,1,213.287,114a2.486,2.486,0,0,1,2.21,2.288c.007.171,0,.343,0,.514q0,19.947,0,39.894Zm-3.193-19.857q0,10.182,0,20.364c0,.144,0,.289,0,.433a2.381,2.381,0,0,0,2.058,2.234,3.97,3.97,0,0,0,.485.03q20.55,0,41.1,0a2.227,2.227,0,0,0,.35-.016.87.87,0,0,0,.713-.776.79.79,0,0,0-.64-.767,2.294,2.294,0,0,0-.509-.042q-20.022,0-40.045,0c-.126,0-.252,0-.378,0a1.571,1.571,0,0,1-1.522-1.412,5.064,5.064,0,0,1-.018-.513q0-20.026,0-40.052c0-.126,0-.253-.009-.378a.859.859,0,0,0-.734-.755.771.771,0,0,0-.792.568,1.736,1.736,0,0,0-.057.505Q212.307,126.95,212.309,137.241ZM253.031,157.1v-.323q0-10.9,0-21.794a2.351,2.351,0,0,0-.008-.3.776.776,0,0,0-.531-.687,1.348,1.348,0,0,0-.427-.045c-.955,0-1.91,0-2.866,0-.081,0-.162,0-.243.009a.756.756,0,0,0-.683.563,1.463,1.463,0,0,0-.039.373q0,1.852,0,3.7v18.5Zm-9.58,0V141.436c0-.081,0-.162,0-.243a.827.827,0,0,0-.874-.856c-1.018.015-2.037,0-3.055.006a.792.792,0,0,0-.866.878q0,7.816,0,15.631c0,.078.011.156.018.245Zm-9.584,0v-.377q0-5.638,0-11.275c0-.081,0-.162,0-.243a.8.8,0,0,0-.88-.874q-1.514-.011-3.028,0a.8.8,0,0,0-.882.893q0,5.8,0,11.6c0,.087.008.175.013.277Zm-9.6,0c.007-.086.016-.157.017-.227,0-2.019-.006-4.038.005-6.057a.848.848,0,0,0-.889-.894q-1.513.033-3.027,0a.857.857,0,0,0-.877.88c.015,2.028.006,4.056.007,6.084,0,.069.012.138.02.214Z" transform="translate(0)" fill="#f4761b"/>
    <path id="Path_176" data-name="Path 176" d="M331,118.661a2.444,2.444,0,0,1-1.518-1.554A2.382,2.382,0,0,1,331.586,114c.09-.006.18-.011.27-.011q2.7,0,5.408,0a2.385,2.385,0,0,1,1.406.4,2.3,2.3,0,0,1,1.061,1.879c.02.549.009,1.1.009,1.65,0,1.334,0,2.669,0,4a2.315,2.315,0,0,1-.814,1.842,2.391,2.391,0,0,1-3.967-1.707c-.007-.113,0-.227,0-.409l-13.828,10.867c.07.077.121.137.176.193.344.345.68.7,1.034,1.031a1.969,1.969,0,0,1,0,2.889c-.245.226-.471.472-.709.706a1.939,1.939,0,0,1-2.827,0c-.489-.48-.97-.968-1.453-1.454-.063-.064-.118-.136-.191-.22-.094.066-.168.111-.236.165q-6.474,5.087-12.946,10.177a3.12,3.12,0,0,1-1.142.647,2.4,2.4,0,0,1-2.112-4.187c1.185-.942,2.38-1.872,3.571-2.807l9.166-7.2c.077-.061.152-.124.2-.166l-6.5-6.517a1.482,1.482,0,0,1-.9.217.3.3,0,0,0-.18.1c-.183.174-.359.355-.537.533q-2.095,2.093-4.192,4.184a1.965,1.965,0,0,1-.49.373,1.306,1.306,0,0,1-1.839-1.23,8.54,8.54,0,0,1,.623-2.863,15.442,15.442,0,0,1,2.395-3.965,3.13,3.13,0,0,1,.242-.29.985.985,0,0,0,.342-.8,2.288,2.288,0,0,1,.193-.674l-.619-.621a1.915,1.915,0,0,1-.563-1.627,1.725,1.725,0,0,1,.453-1.02c.333-.355.67-.708,1.033-1.032a1.928,1.928,0,0,1,2.547.032c.254.229.49.477.746.727a1.452,1.452,0,0,1,.191-.094,1.184,1.184,0,0,1,.462-.125.984.984,0,0,0,.8-.347,15.526,15.526,0,0,1,4.18-2.6,8.344,8.344,0,0,1,2.938-.648,1.211,1.211,0,0,1,1.229.753,1.247,1.247,0,0,1-.181,1.368,2.486,2.486,0,0,1-.2.215q-2.313,2.315-4.629,4.627a.519.519,0,0,0-.192.443,1.26,1.26,0,0,1-.212.741l6.941,6.943Zm-10.981,12.69c.071-.054.164-.122.255-.194l2.253-1.771L333.193,121q.988-.777,1.976-1.555a.833.833,0,0,1,.672-.217.812.812,0,0,1,.707.823c-.01.586,0,1.172,0,1.757a1.644,1.644,0,0,0,.032.348.79.79,0,0,0,1.52.068,1.376,1.376,0,0,0,.049-.4q0-2.636,0-5.272c0-.072,0-.145,0-.216a.806.806,0,0,0-.8-.757c-.045,0-.09,0-.135,0h-5.3a2.1,2.1,0,0,0-.243.007.8.8,0,0,0-.7.768.785.785,0,0,0,.684.807,2.557,2.557,0,0,0,.323.016c.405,0,.811-.008,1.216.007a.776.776,0,0,1,.757.765.822.822,0,0,1-.38.731q-2.076,1.623-4.145,3.255l-10.33,8.116c-.076.059-.149.121-.21.17Zm-11.654-6.685a1.677,1.677,0,0,1,.151.12q3.479,3.477,6.957,6.955,2.2,2.2,4.4,4.394c.275.275.426.274.7,0q.317-.313.63-.631c.242-.247.242-.4.006-.643l-.076-.077-11.291-11.3c-.055-.055-.115-.105-.153-.139Zm6.463,8.755c-.048.035-.122.084-.191.139l-12.731,10a2.341,2.341,0,0,0-.247.21.77.77,0,0,0-.166.874.761.761,0,0,0,.72.477.987.987,0,0,0,.654-.279l12.814-10.068c.1-.077.193-.157.268-.218Zm-7.575-14.093-2.88,2.882,2.045,2.023,2.866-2.858Zm1.562-.807,1.235,1.247,4.088-4.1A12.377,12.377,0,0,0,308.813,118.521Zm-8.091,10.563,4.056-4.054-1.233-1.229c-.011.014-.041.058-.076.1a15.778,15.778,0,0,0-1.48,2.057,9.972,9.972,0,0,0-1.18,2.711C300.775,128.814,300.748,128.962,300.722,129.085Zm4.56-10.186c-.22-.208-.43-.416-.65-.612a.325.325,0,0,0-.484-.011c-.288.27-.567.55-.838.837a.3.3,0,0,0-.028.421c.208.254.456.469.678.693Z" transform="translate(-81.927 0)" fill="#f4761b"/>
    <path id="Path_177" data-name="Path 177" d="M345.645,383.228l1.121,1.132c-.075.061-.17.142-.268.218l-12.814,10.068a.987.987,0,0,1-.654.279.761.761,0,0,1-.72-.477.77.77,0,0,1,.166-.874,2.334,2.334,0,0,1,.247-.21l12.731-10C345.523,383.312,345.6,383.263,345.645,383.228Z" transform="translate(-112.745 -249.807)" fill="#f4761b"/>
  </g>
</svg>
