<svg xmlns="http://www.w3.org/2000/svg" width="60.515" height="48.857" viewBox="0 0 60.515 48.857">
  <g id="Group_85" data-name="Group 85" transform="translate(-96.941 -97.287)">
    <path id="Path_154" data-name="Path 154" d="M115.815,142.252a6.853,6.853,0,0,1-12.354,0H99.944a2.936,2.936,0,0,1-3-2.915c0-.058,0-.117,0-.175q0-6.935,0-13.87a2.99,2.99,0,0,1,.563-1.806,2.875,2.875,0,0,1,1.648-1.113c.474-.124.95-.239,1.424-.36.123-.031.244-.069.383-.11.1-.65.2-1.294.3-1.938q.444-2.888.888-5.776c.077-.5.139-.995.25-1.483a4.814,4.814,0,0,1,4.39-3.662q.35-.016.7-.016,4.868,0,9.736,0a4.827,4.827,0,0,1,4.649,2.888c.024.049.055.095.1.171.082-.116.152-.206.214-.3q2.651-4.1,5.3-8.206a13.452,13.452,0,0,1,6.123-5.2,13,13,0,0,1,6.781-.994,13.294,13.294,0,0,1,9.953,6.221c2.326,3.568,4.625,7.155,6.941,10.73a1.021,1.021,0,0,1,.168.588q-.007,4.343,0,8.686a1.293,1.293,0,0,1-.147.6q-2.451,4.9-4.894,9.8c-.06.121-.114.246-.195.421h.4c.607,0,1.214,0,1.821,0a2.93,2.93,0,0,1,3.011,2.977q.015.981,0,1.961a2.929,2.929,0,0,1-2.925,2.882c-1.062.006-2.125,0-3.187,0h-.4c-.059.109-.113.211-.17.311a6.815,6.815,0,0,1-11.99.01.523.523,0,0,0-.531-.328q-11.05.013-22.1.007ZM155.5,120.771h-33.15v13.643c.134.006.248.016.362.016q8.492,0,16.985,0a.719.719,0,0,0,.529-.2,6.762,6.762,0,0,1,9.037-.045.747.747,0,0,0,.775.207c.056-.109.122-.231.184-.356q2.283-4.571,4.564-9.143a6.928,6.928,0,0,0,.672-1.417,7.4,7.4,0,0,0,.04-1.6C155.5,121.514,155.5,121.155,155.5,120.771Zm-32.952-5.912c.868.081,32.447.043,32.715-.039-.068-.111-.131-.22-.2-.327q-1.33-2.059-2.661-4.117c-1.319-2.038-2.6-4.1-3.966-6.108a11.571,11.571,0,0,0-19.33.407q-3.178,4.929-6.362,9.855C122.68,114.625,122.625,114.724,122.544,114.859Zm-2.169,19.552v-.437q0-9.894,0-19.787c0-.105,0-.21,0-.315a2.932,2.932,0,0,0-1.4-2.449,3.028,3.028,0,0,0-1.7-.437q-4.99.007-9.98,0c-.128,0-.257,0-.385.013a2.872,2.872,0,0,0-2.638,2.319c-.047.228-.084.459-.119.689q-.709,4.617-1.412,9.235a.332.332,0,0,1-.3.319c-.884.211-1.766.433-2.647.658a1.015,1.015,0,0,0-.9,1.146q0,4.36,0,8.721c0,.1.012.2.019.317.1.009.18.023.259.023,1.821,0,3.642,0,5.463.005a.6.6,0,0,0,.427-.188,6.785,6.785,0,0,1,9.121-.013.728.728,0,0,0,.529.2c1.763-.006,3.525,0,5.288,0C120.114,134.429,120.227,134.418,120.375,134.411Zm18.178,1.991H115.815a6.945,6.945,0,0,1,.58,3.873h21.583A7.5,7.5,0,0,1,138.553,136.4Zm-16.21-17.627h33.118a8.257,8.257,0,0,0-.026-1.914H122.343Zm17.545,20.668a4.877,4.877,0,1,0,4.718-5A4.875,4.875,0,0,0,139.889,139.442Zm-25.38-.08a4.875,4.875,0,1,0-4.778,4.836A4.9,4.9,0,0,0,114.509,139.362ZM98.894,136.4c0,.966,0,1.888,0,2.81a.99.99,0,0,0,1.091,1.083q1.278,0,2.556,0c.1,0,.205-.01.334-.018a6.849,6.849,0,0,1,.579-3.875Zm52.641,3.855a.837.837,0,0,0,.158.036c.956,0,1.912.013,2.868,0a.938.938,0,0,0,.931-.946c.014-.664,0-1.329,0-1.994a.914.914,0,0,0-.249-.636,1.077,1.077,0,0,0-.85-.333c-1.061,0-2.122,0-3.183,0-.075,0-.151.012-.271.022A6.954,6.954,0,0,1,151.534,140.258Z" transform="translate(0 0)" fill="#f4761b"/>
    <path id="Path_155" data-name="Path 155" d="M431.193,379.295v-9.73h1.885c.07.238.088,9.276.014,9.71-.085.006-.175.018-.265.019C432.293,379.3,431.759,379.295,431.193,379.295Z" transform="translate(-303.007 -246.826)" fill="#f4761b"/>
    <path id="Path_156" data-name="Path 156" d="M495.561,369.284v9.728a6.064,6.064,0,0,1-.936.027c-.314.006-.629,0-.937,0-.077-.276-.109-8.928-.038-9.747.3,0,.614-.007.925-.008S495.2,369.284,495.561,369.284Z" transform="translate(-359.59 -246.571)" fill="#f4761b"/>
    <path id="Path_157" data-name="Path 157" d="M558.139,379.029h-1.863c-.076-.252-.1-9.122-.027-9.739l.921,0h.936C558.179,369.562,558.208,378.332,558.139,379.029Z" transform="translate(-416.331 -246.575)" fill="#f4761b"/>
    <path id="Path_158" data-name="Path 158" d="M621.142,379.236h-1.91v-9.714h1.91Z" transform="translate(-473.469 -246.787)" fill="#f4761b"/>
    <path id="Path_159" data-name="Path 159" d="M598.415,160.381h1.9v1.912h-1.9Z" transform="translate(-454.597 -57.196)" fill="#f4761b"/>
    <path id="Path_160" data-name="Path 160" d="M454.105,183.294h-1.886v-1.906h1.873A8.3,8.3,0,0,1,454.105,183.294Z" transform="translate(-322.068 -76.24)" fill="#f4761b"/>
    <path id="Path_161" data-name="Path 161" d="M548.072,149.661v1.932h-1.907v-1.912a7.333,7.333,0,0,1,.924-.02C547.4,149.657,547.716,149.661,548.072,149.661Z" transform="translate(-407.232 -47.475)" fill="#f4761b"/>
    <path id="Path_162" data-name="Path 162" d="M504.451,160.318h1.872a8.445,8.445,0,0,1,.008,1.923h-1.88Z" transform="translate(-369.417 -57.139)" fill="#f4761b"/>
    <path id="Path_163" data-name="Path 163" d="M556.591,191.737h1.867a8.651,8.651,0,0,1,.019,1.919h-1.886Z" transform="translate(-416.683 -85.621)" fill="#f4761b"/>
    <path id="Path_164" data-name="Path 164" d="M483.549,204.131v-1.908h1.911v1.908Z" transform="translate(-350.469 -95.127)" fill="#f4761b"/>
    <path id="Path_165" data-name="Path 165" d="M598.3,214.674v-1.922h1.936c0,.621,0,1.243,0,1.915C599.585,214.69,598.955,214.677,598.3,214.674Z" transform="translate(-454.492 -104.672)" fill="#f4761b"/>
    <path id="Path_166" data-name="Path 166" d="M443.626,245.739H441.71v-1.9a18.914,18.914,0,0,1,1.916-.008Z" transform="translate(-312.541 -132.828)" fill="#f4761b"/>
    <path id="Path_167" data-name="Path 167" d="M504.452,244.08h1.907v1.9h-1.907Z" transform="translate(-369.418 -133.071)" fill="#f4761b"/>
    <path id="Path_168" data-name="Path 168" d="M568.9,245.979h-1.911v-1.905H568.9Z" transform="translate(-426.108 -133.066)" fill="#f4761b"/>
    <path id="Path_169" data-name="Path 169" d="M650.632,244.049h1.9v1.905h-1.9Z" transform="translate(-501.933 -133.043)" fill="#f4761b"/>
    <path id="Path_170" data-name="Path 170" d="M194.22,278.336H180.6a.41.41,0,0,1-.039-.109,25.592,25.592,0,0,1,.1-3.077c.122-1.16.217-2.324.324-3.486q.2-2.2.4-4.393c.026-.291.049-.582.082-.871a1.916,1.916,0,0,1,1.683-1.707,3.3,3.3,0,0,1,.419-.024c2.837,0,5.673,0,8.51,0a2.526,2.526,0,0,1,.858.131,1.9,1.9,0,0,1,1.281,1.758c.009.1,0,.21,0,.315q0,5.516,0,11.033Zm-1.979-1.953v-9.725c-.442-.069-8.574-.052-8.825.015-.131.645-.9,9.455-.841,9.71Z" transform="translate(-75.8 -151.734)" fill="#f4761b"/>
    <path id="Path_171" data-name="Path 171" d="M577.2,518.493a2.928,2.928,0,1,1,5.855.067,2.928,2.928,0,0,1-5.855-.067Zm1.955,0a.976.976,0,1,0,.98-.945A.983.983,0,0,0,579.158,518.5Z" transform="translate(-435.368 -379.208)" fill="#f4761b"/>
    <path id="Path_172" data-name="Path 172" d="M201.486,518.5a2.922,2.922,0,1,1,5.843.084,2.922,2.922,0,0,1-5.843-.084Zm2.932-.953a.977.977,0,1,0,.955,1A.976.976,0,0,0,204.418,517.547Z" transform="translate(-94.772 -379.204)" fill="#f4761b"/>
    <path id="Path_173" data-name="Path 173" d="M598.12,537.439a.976.976,0,1,1,.953,1.009A.987.987,0,0,1,598.12,537.439Z" transform="translate(-454.33 -398.151)" fill="#f4761b"/>
    <path id="Path_174" data-name="Path 174" d="M223.321,536.49a.977.977,0,1,1-.982.937A.977.977,0,0,1,223.321,536.49Z" transform="translate(-113.675 -398.148)" fill="#f4761b"/>
  </g>
</svg>
